{"title":"18+ UNindian 2016 Movies HDRip XviD AAC New Source +Sample ☻rDX☻","uid":15537623,"size":739281930,"categoryP":"video","categoryS":"movies","magnet":"?xt=urn:btih:2d4f3ac60829eb3e6df541d720c2eac6a77578f6&amp;dn=18%2B+UNindian+2016+Movies+HDRip+XviD+AAC+New+Source+%2BSample+%E2%98%BBrDX%E2%98%BB&amp;tr=udp%3A%2F%2Ftracker.leechers-paradise.org%3A6969&amp;tr=udp%3A%2F%2Fzer0day.ch%3A1337&amp;tr=udp%3A%2F%2Fopen.demonii.com%3A1337&amp;tr=udp%3A%2F%2Ftracker.coppersurfer.tk%3A6969&amp;tr=udp%3A%2F%2Fexodus.desync.com%3A6969","seeders":1,"leechers":0,"uploader":"basicssom","files":2,"time":1470896463,"description":"----------------------------------------------------------------\r\n18+ UNindian 2016 English Movies HDRip XviD AAC New Source with Sample ☻rDX☻\r\n\r\nSCREEN SHOTS &amp; POSTER:\r\n  \nhttp://postimage.co.nr/2016/8/owner/index.htm  \nhttp://postimage.co.nr/2016/8/owner/1.html  \nhttp://postimage.co.nr/2016/8/owner/2.html  \nhttp://postimage.co.nr/2016/8/owner/3.html  \nhttp://postimage.co.nr/2016/8/owner/4.html  \nhttp://postimage.co.nr/2016/8/owner/5.html  \nhttp://postimage.co.nr/2016/8/owner/6.html  \nhttp://postimage.co.nr/2016/8/owner/7.html  \nhttp://postimage.co.nr/2016/8/owner/8.html  \nhttp://postimage.co.nr/2016/8/owner/9.html  \nhttp://postimage.co.nr/2016/8/owner/10.html\r\n\r\nFormat                                   : Matroska\r\nFormat version                           : Version 4 / Version 2\r\nFile size                                : 699 MiB\r\nDuration                                 : 1 h 47 min\r\nOverall bit rate mode                    : Constant\r\nOverall bit rate                         : 906 kb/s\r\nMovie name                               : UNindian 2016 English Movies HDRip XviD AAC New Source ☻rDX☻\r\n\r\nVideo\r\nID                                       : 2\r\nFormat                                   : AVC\r\nFormat/Info                              : Advanced Video Codec\r\nFormat profile                           :   \r\nFormat settings, CABAC                   : Yes\r\nFormat settings, ReFrames                : 2 frames\r\nFormat settings, GOP                     : M=1, N=12\r\nCodec ID                                 : V_MPEG4/ISO/AVC\r\nDuration                                 : 1 h 47 min\r\nBit rate mode                            : Constant\r\nBit rate                                 : 523 kb/s\r\nWidth                                    : 720 pixels\r\nHeight                                   : 304 pixels\r\nDisplay aspect ratio                     : 2.35:1\r\nFrame rate mode                          : Constant\r\nFrame rate                               : 24.000 FPS\r\nColor space                              : YUV\r\nChroma subsampling                       : 4:2:0\r\nBit depth                                : 8 bits\r\nScan type                                : Progressive\r\nBits/(Pixel*Frame)                       : 0.100\r\nStream size                              : 389 MiB (56%)\r\nTitle                                    : ☻rDX☻\r\nDefault                                  : Yes\r\nForced                                   : No\r\n\r\nAudio\r\nID                                       : 1\r\nFormat                                   : AC-3\r\nFormat/Info                              : Audio Coding 3\r\nMode extension                           : CM (complete main)\r\nFormat settings, Endianness              : Big\r\nCodec ID                                 : A_AC3\r\nDuration                                 : 1 h 47 min\r\nBit rate mode                            : Constant\r\nBit rate                                 : 384 kb/s\r\nChannel(s)                               : 6 channels\r\nChannel positions                        : Front: L C R, Side: L R, LFE\r\nSampling rate                            : 48.0 kHz\r\nFrame rate                               : 31.250 FPS (1536 spf)\r\nCompression mode                         : Lossy\r\nStream size                              : 296 MiB (42%)\r\nTitle                                    : ☻rDX☻\r\nDefault                                  : Yes\r\nForced                                   : No\r\n\r\nIMDB \nhttp://www.imdb.com/title/tt4024210/","torrent":{"xt":"urn:btih:2d4f3ac60829eb3e6df541d720c2eac6a77578f6","amp;dn":"18%2B+UNindian+2016+Movies+HDRip+XviD+AAC+New+Source+%2BSample+%E2%98%BBrDX%E2%98%BB","amp;tr":["udp%3A%2F%2Ftracker.leechers-paradise.org%3A6969","udp%3A%2F%2Fzer0day.ch%3A1337","udp%3A%2F%2Fopen.demonii.com%3A1337","udp%3A%2F%2Ftracker.coppersurfer.tk%3A6969","udp%3A%2F%2Fexodus.desync.com%3A6969"],"infoHash":"2d4f3ac60829eb3e6df541d720c2eac6a77578f6","infoHashBuffer":{"type":"Buffer","data":[45,79,58,198,8,41,235,62,109,245,65,215,32,194,234,198,167,117,120,246]},"announce":[],"urlList":[]}}